<?xml version="1.0" encoding="UTF-8"?>
<svg version="1.1" xmlns="http://www.w3.org/2000/svg" width="180" height="180">
<path d="M0 0 C2.00442537 0.08515689 4.01069929 0.12248251 6.01660156 0.15893555 C19.29985884 0.64088275 28.48600219 4.67474819 38.54003906 13.14916992 C39.53003906 13.80916992 40.52003906 14.46916992 41.54003906 15.14916992 C41.54003906 15.80916992 41.54003906 16.46916992 41.54003906 17.14916992 C42.20003906 17.14916992 42.86003906 17.14916992 43.54003906 17.14916992 C53.56240675 26.96360467 60.3559806 40.57087104 63.54003906 54.14916992 C63.71244614 54.76564392 63.88485321 55.38211792 64.06248474 56.01727295 C64.54723605 58.18129868 64.66057111 60.06104352 64.65356445 62.27514648 C64.65348892 63.07567444 64.65341339 63.87620239 64.65333557 64.70098877 C64.64817429 65.5552948 64.643013 66.40960083 64.63769531 67.28979492 C64.63557289 68.61306793 64.63557289 68.61306793 64.63340759 69.96307373 C64.62781908 72.77514058 64.61526867 75.58712722 64.60253906 78.39916992 C64.59752258 80.30802294 64.59295993 82.2168772 64.58886719 84.12573242 C64.5778534 88.8002424 64.56059664 93.47469257 64.54003906 98.14916992 C65.53003906 98.14916992 66.52003906 98.14916992 67.54003906 98.14916992 C67.641875 97.61807617 67.74371094 97.08698242 67.84863281 96.53979492 C68.74312007 93.44699152 70.13865033 90.76465424 71.60253906 87.89916992 C72.15039062 86.82151367 72.69824219 85.74385742 73.26269531 84.63354492 C73.68421875 83.81370117 74.10574219 82.99385742 74.54003906 82.14916992 C75.86003906 82.47916992 77.18003906 82.80916992 78.54003906 83.14916992 C76.7256565 89.88148416 74.19213637 95.86474871 69.54003906 101.14916992 C66.47753906 102.83666992 66.47753906 102.83666992 63.54003906 103.14916992 C60.66503906 102.27416992 60.66503906 102.27416992 58.54003906 101.14916992 C58.15332031 102.45821289 58.15332031 102.45821289 57.75878906 103.79370117 C56.52673464 107.18579974 55.01984255 109.8292142 53.04003906 112.83666992 C52.43160156 113.76866211 51.82316406 114.7006543 51.19628906 115.66088867 C49.97826422 117.49079864 48.75939009 119.32014338 47.54003906 121.14916992 C46.88003906 121.14916992 46.22003906 121.14916992 45.54003906 121.14916992 C45.17652344 122.0212207 45.17652344 122.0212207 44.80566406 122.91088867 C39.53919017 132.22474528 25.74486705 138.06468124 16.05175781 141.32104492 C9.64972468 142.78862573 3.01046284 142.54327627 -3.52246094 142.52416992 C-4.21626862 142.5236261 -4.91007629 142.52308228 -5.62490845 142.52252197 C-20.00035054 142.47053574 -31.40075864 140.33871182 -44.16699219 133.22338867 C-44.92367187 132.86889648 -45.68035156 132.5144043 -46.45996094 132.14916992 C-47.11996094 132.47916992 -47.77996094 132.80916992 -48.45996094 133.14916992 C-54.27813346 133.99413274 -58.61449321 133.28805961 -63.42480469 129.88354492 C-70.29396011 124.02960057 -75.39808373 117.14327995 -79.95214844 109.39916992 C-81.41889126 106.90037272 -81.41889126 106.90037272 -84.45996094 105.14916992 C-85.12011719 103.04760742 -85.12011719 103.04760742 -85.52246094 100.52416992 C-86.07271376 97.32811814 -86.66647632 94.21479019 -87.52246094 91.08666992 C-90.74003688 78.34304239 -91.54090182 61.94342803 -86.42480469 49.66479492 C-85.34642669 46.8531535 -85.08970095 44.45979602 -84.89746094 41.46166992 C-84.55824487 36.34573778 -84.55824487 36.34573778 -83.45996094 34.14916992 C-79.93798884 34.0691251 -76.84014624 34.1091129 -73.45996094 35.14916992 C-72.79996094 34.15916992 -72.13996094 33.16916992 -71.45996094 32.14916992 C-70.79996094 32.14916992 -70.13996094 32.14916992 -69.45996094 32.14916992 C-69.45996094 31.48916992 -69.45996094 30.82916992 -69.45996094 30.14916992 C-63.78173751 25.25898891 -57.5435366 21.46331823 -50.78027344 18.29370117 C-48.59594477 17.21624612 -46.66263771 16.01088979 -44.64746094 14.64916992 C-36.86691691 9.66083726 -27.76619731 6.97534176 -18.79980469 5.02026367 C-16.31265172 4.30992635 -16.31265172 4.30992635 -14.72192383 2.11645508 C-10.5837259 -1.48263817 -5.2285534 -0.23451785 0 0 Z " fill="#D6B64B" transform="translate(98.4599609375,15.850830078125)"/>
<path d="M0 0 C0.66 0 1.32 0 2 0 C2.42419677 2.20070302 2.84724091 4.40161968 3.26904297 6.6027832 C3.63502371 8.51176901 4.00256744 10.42045575 4.37158203 12.32885742 C5.21993342 16.75008747 6.04758809 21.1658647 6.72265625 25.6171875 C8.26849398 35.67723664 11.15658486 44.58708509 15 54 C16 57 16 57 14.7421875 59.890625 C7.88644458 72.22522523 7.88644458 72.22522523 4 77 C3.34 77 2.68 77 2 77 C1.63648438 77.87205078 1.63648438 77.87205078 1.265625 78.76171875 C-4.00084889 88.07557536 -17.79517201 93.91551131 -27.48828125 97.171875 C-33.89031438 98.63945581 -40.52957622 98.39410635 -47.0625 98.375 C-47.75630768 98.37445618 -48.45011536 98.37391235 -49.16494751 98.37335205 C-63.5403896 98.32136581 -74.94079771 96.1895419 -87.70703125 89.07421875 C-88.46371094 88.71972656 -89.22039062 88.36523438 -90 88 C-90.99 88.495 -90.99 88.495 -92 89 C-97.81565945 89.84459784 -102.15140718 89.13944313 -106.9609375 85.73828125 C-114.1933494 79.57271938 -119.48987039 72.31278792 -124 64 C-120.8035914 62.93453047 -118.34252724 62.92572162 -115 63 C-114.18959794 57.95012809 -113.80441124 52.99411985 -113.68359375 47.87890625 C-113.66281265 47.13414536 -113.64203156 46.38938446 -113.62062073 45.62205505 C-113.5558179 43.26895375 -113.49656635 40.91575157 -113.4375 38.5625 C-113.3942487 36.95637024 -113.35063243 35.35025027 -113.30664062 33.74414062 C-113.20020878 29.82952751 -113.09875149 25.91481409 -113 22 C-110.50075813 25.00205182 -108.39125816 27.85817266 -106.66796875 31.36328125 C-106.26126953 32.16830078 -105.85457031 32.97332031 -105.43554688 33.80273438 C-104.61050773 35.46185065 -103.79010765 37.12328278 -102.97460938 38.78710938 C-99.51657559 45.60003308 -95.37497717 52.97668904 -88 56 C-85.04253508 56.58345476 -85.04253508 56.58345476 -82 56 C-79.12359384 53.62499209 -79.12359384 53.62499209 -77 51 C-76.649375 51.515625 -76.29875 52.03125 -75.9375 52.5625 C-73.96888919 54.34749191 -73.96888919 54.34749191 -70.77734375 53.78515625 C-60.81737783 51.71488412 -48.73151268 44.59726902 -43 36 C-42.34 36 -41.68 36 -41 36 C-40.67 45.24 -40.34 54.48 -40 64 C-38.68 63.34 -37.36 62.68 -36 62 C-33.66796188 61.9222654 -31.33160941 61.91032272 -29 62 C-29.01571045 60.88665283 -29.0314209 59.77330566 -29.04760742 58.6262207 C-29.10253952 54.43472738 -29.13657651 50.2432648 -29.16479492 46.05151367 C-29.17973916 44.24872459 -29.20010204 42.44597094 -29.22631836 40.64331055 C-29.55948724 17.11897448 -29.55948724 17.11897448 -25 8 C-24.01 8 -23.02 8 -22 8 C-18.79201875 17.45382353 -16.97525566 27.23401515 -15 37 C-12.03 37.33 -9.06 37.66 -6 38 C-5.97421875 37.00484375 -5.9484375 36.0096875 -5.921875 34.984375 C-4.81083375 4.81083375 -4.81083375 4.81083375 0 0 Z " fill="#4D2F7F" transform="translate(142,60)"/>
<path d="M0 0 C2.00442537 0.08515689 4.01069929 0.12248251 6.01660156 0.15893555 C19.29985884 0.64088275 28.48600219 4.67474819 38.54003906 13.14916992 C39.53003906 13.80916992 40.52003906 14.46916992 41.54003906 15.14916992 C41.54003906 15.80916992 41.54003906 16.46916992 41.54003906 17.14916992 C42.20003906 17.14916992 42.86003906 17.14916992 43.54003906 17.14916992 C53.56240675 26.96360467 60.3559806 40.57087104 63.54003906 54.14916992 C63.72566406 54.76791992 63.91128906 55.38666992 64.10253906 56.02416992 C64.68319942 58.84452025 64.63380432 61.52276622 64.60253906 64.39916992 C64.59351563 65.47682617 64.58449219 66.55448242 64.57519531 67.66479492 C64.55779297 68.89456055 64.55779297 68.89456055 64.54003906 70.14916992 C64.21003906 70.14916992 63.88003906 70.14916992 63.54003906 70.14916992 C63.38148438 69.11018555 63.22292969 68.07120117 63.05957031 67.00073242 C61.05284255 53.48455996 61.05284255 53.48455996 53.63378906 42.41088867 C50.11457919 40.29017078 47.5985635 40.76264378 43.54003906 41.14916992 C40.20896934 43.24321618 39.73396537 46.43310455 38.85449219 50.1003418 C38.68884766 50.83833008 38.52320313 51.57631836 38.35253906 52.33666992 C38.17529297 53.08625977 37.99804688 53.83584961 37.81542969 54.6081543 C37.38067643 56.45291811 36.9590663 58.30077059 36.54003906 60.14916992 C35.88003906 60.14916992 35.22003906 60.14916992 34.54003906 60.14916992 C34.22550781 59.46209961 33.91097656 58.7750293 33.58691406 58.06713867 C33.15894531 57.16608398 32.73097656 56.2650293 32.29003906 55.33666992 C31.87238281 54.44334961 31.45472656 53.5500293 31.02441406 52.62963867 C29.45319811 50.00405412 28.14367437 48.71953542 25.54003906 47.14916992 C22.77203715 46.74409647 21.27779457 46.66679132 18.91503906 48.21166992 C16.92764124 51.01209413 15.80477199 53.95722491 14.54003906 57.14916992 C14.21003906 57.14916992 13.88003906 57.14916992 13.54003906 57.14916992 C12.55003906 50.54916992 11.56003906 43.94916992 10.54003906 37.14916992 C5.24524913 38.29027531 5.24524913 38.29027531 1.43066406 41.77026367 C0.20358664 45.04785206 0.35045906 47.91184967 0.41503906 51.39916992 C0.43308594 52.66245117 0.45113281 53.92573242 0.46972656 55.22729492 C0.49292969 56.19151367 0.51613281 57.15573242 0.54003906 58.14916992 C-0.3584375 57.8269043 -1.25691406 57.50463867 -2.18261719 57.17260742 C-7.04189267 55.65516979 -11.79032602 55.02459844 -16.59277344 57.04760742 C-18.26351936 58.00135307 -19.86974582 59.06647027 -21.45996094 60.14916992 C-21.89308594 59.38604492 -22.32621094 58.62291992 -22.77246094 57.83666992 C-25.43623609 53.59436135 -27.58939588 51.58820051 -32.45996094 50.14916992 C-36.66613907 49.69031413 -38.90418807 49.87128349 -42.70996094 51.77416992 C-46.38058542 54.9442547 -48.03473098 57.50329463 -48.81152344 62.33666992 C-49.46052673 72.99398719 -44.22390593 81.85107057 -37.71777344 89.89526367 C-36.45996094 92.14916992 -36.45996094 92.14916992 -36.70214844 94.80932617 C-37.45996094 97.14916992 -37.45996094 97.14916992 -38.45996094 99.14916992 C-41.45996094 98.14916992 -41.45996094 98.14916992 -42.68334961 96.17480469 C-43.07756104 95.32200928 -43.47177246 94.46921387 -43.87792969 93.59057617 C-44.54646973 92.18171143 -44.54646973 92.18171143 -45.22851562 90.74438477 C-45.69676758 89.74358887 -46.16501953 88.74279297 -46.64746094 87.71166992 C-54.03293424 72.21200886 -54.03293424 72.21200886 -67.45996094 62.14916992 C-65.60590713 60.21786387 -63.73266589 58.3721846 -61.65917969 56.67651367 C-54.74502153 50.99750609 -48.57193514 44.06639435 -46.45996094 35.14916992 C-48.10996094 34.81916992 -49.75996094 34.48916992 -51.45996094 34.14916992 C-51.62496094 35.24229492 -51.78996094 36.33541992 -51.95996094 37.46166992 C-54.19528648 46.38711874 -61.23577272 53.80327064 -68.45996094 59.14916992 C-69.11996094 59.14916992 -69.77996094 59.14916992 -70.45996094 59.14916992 C-70.48183472 58.26394653 -70.48183472 58.26394653 -70.50415039 57.36083984 C-70.57864937 54.68545763 -70.67530089 52.011321 -70.77246094 49.33666992 C-70.79501953 48.40790039 -70.81757812 47.47913086 -70.84082031 46.5222168 C-70.87626953 45.62954102 -70.91171875 44.73686523 -70.94824219 43.81713867 C-70.97442627 42.9949585 -71.00061035 42.17277832 -71.02758789 41.32568359 C-71.5446005 38.7231046 -72.44198789 37.81006275 -74.45996094 36.14916992 C-73.08496094 34.14916992 -73.08496094 34.14916992 -71.45996094 32.14916992 C-70.79996094 32.14916992 -70.13996094 32.14916992 -69.45996094 32.14916992 C-69.45996094 31.48916992 -69.45996094 30.82916992 -69.45996094 30.14916992 C-63.78173751 25.25898891 -57.5435366 21.46331823 -50.78027344 18.29370117 C-48.59594477 17.21624612 -46.66263771 16.01088979 -44.64746094 14.64916992 C-36.86691691 9.66083726 -27.76619731 6.97534176 -18.79980469 5.02026367 C-16.31265172 4.30992635 -16.31265172 4.30992635 -14.72192383 2.11645508 C-10.5837259 -1.48263817 -5.2285534 -0.23451785 0 0 Z " fill="#463F8B" transform="translate(98.4599609375,15.850830078125)"/>
<path d="M0 0 C0.66 0 1.32 0 2 0 C9.14188739 36.65025329 9.14188739 36.65025329 6 47 C5.86335938 47.95261719 5.72671875 48.90523437 5.5859375 49.88671875 C3.29836889 62.04133329 -6.13292531 69.75859346 -15.8125 76.4375 C-18.77094696 78.38574556 -21.69963291 79.7226154 -25 81 C-25.8971875 81.556875 -25.8971875 81.556875 -26.8125 82.125 C-34.33556615 85.13422646 -41.89565327 81.72151129 -49 79 C-49.66 78.67 -50.32 78.34 -51 78 C-51 77.34 -51 76.68 -51 76 C-51.66 76 -52.32 76 -53 76 C-53.33 75.01 -53.66 74.02 -54 73 C-55.485 72.505 -55.485 72.505 -57 72 C-57 69.69 -57 67.38 -57 65 C-57.763125 64.855625 -58.52625 64.71125 -59.3125 64.5625 C-63.29554656 63.72883909 -65.18593167 62.81406833 -68 60 C-68.99 59.67 -69.98 59.34 -71 59 C-71 58.34 -71 57.68 -71 57 C-71.66 56.67 -72.32 56.34 -73 56 C-71.68 56 -70.36 56 -69 56 C-69 55.34 -69 54.68 -69 54 C-68.02160156 53.50371094 -67.04320313 53.00742188 -66.03515625 52.49609375 C-53.01628103 46.11131134 -53.01628103 46.11131134 -43 36 C-42.34 36 -41.68 36 -41 36 C-40.67 45.24 -40.34 54.48 -40 64 C-38.68 63.34 -37.36 62.68 -36 62 C-33.66796188 61.9222654 -31.33160941 61.91032272 -29 62 C-29.01571045 60.88665283 -29.0314209 59.77330566 -29.04760742 58.6262207 C-29.10253952 54.43472738 -29.13657651 50.2432648 -29.16479492 46.05151367 C-29.17973916 44.24872459 -29.20010204 42.44597094 -29.22631836 40.64331055 C-29.55948724 17.11897448 -29.55948724 17.11897448 -25 8 C-24.01 8 -23.02 8 -22 8 C-18.79201875 17.45382353 -16.97525566 27.23401515 -15 37 C-12.03 37.33 -9.06 37.66 -6 38 C-5.97421875 37.00484375 -5.9484375 36.0096875 -5.921875 34.984375 C-4.81083375 4.81083375 -4.81083375 4.81083375 0 0 Z " fill="#29A6D4" transform="translate(142,60)"/>
<path d="M0 0 C2.08984375 0.4296875 2.08984375 0.4296875 4 1 C4.13277344 1.88042969 4.26554687 2.76085938 4.40234375 3.66796875 C4.57894531 4.82941406 4.75554687 5.99085937 4.9375 7.1875 C5.11152344 8.33605469 5.28554687 9.48460937 5.46484375 10.66796875 C5.91379313 13.46325212 6.42082162 16.22933586 7 19 C7.433125 18.071875 7.86625 17.14375 8.3125 16.1875 C10.91950464 11.26315789 10.91950464 11.26315789 13 10 C16.3125 9.8125 16.3125 9.8125 20 11 C23.7469526 14.59674069 26.66795088 18.687214 27 24 C27.66 24 28.32 24 29 24 C29.103125 22.865625 29.20625 21.73125 29.3125 20.5625 C29.9780989 15.2939566 31.02251896 9.52299305 34.359375 5.265625 C36.74972105 3.42164376 39.07956758 3.52323734 42.01171875 3.66796875 C45.40286226 4.23426973 46.72966823 5.42286663 49 8 C59.58329652 23.60641337 57.36732845 44.12711607 57 62 C57.99 62 58.98 62 60 62 C60.15275391 61.20335938 60.15275391 61.20335938 60.30859375 60.390625 C61.20308101 57.2978216 62.59861127 54.61548432 64.0625 51.75 C64.61035156 50.67234375 65.15820312 49.5946875 65.72265625 48.484375 C66.14417969 47.66453125 66.56570312 46.8446875 67 46 C68.98 46.495 68.98 46.495 71 47 C69.18467068 53.7358272 66.64809647 59.70884164 62 65 C58.9375 66.75 58.9375 66.75 56 67 C52.41253531 65.48504239 51.16703045 64.31058428 49.3046875 60.84765625 C48.80836836 59.59357757 48.33269156 58.33118611 47.875 57.0625 C47.62129639 56.38791748 47.36759277 55.71333496 47.10620117 55.01831055 C41.55967234 39.91754215 39.69622422 23.9221047 38 8 C35.85428367 8.77864154 35.85428367 8.77864154 35.4375 10.6796875 C35.293125 11.40414062 35.14875 12.12859375 35 12.875 C34.7539502 14.09461426 34.7539502 14.09461426 34.50292969 15.33886719 C34.33696289 16.21704102 34.17099609 17.09521484 34 18 C33.82629883 18.89106445 33.65259766 19.78212891 33.47363281 20.70019531 C31.8874195 29.08956743 30.83611461 37.50683576 30 46 C27.03 46 24.06 46 21 46 C18.62563633 39.36674905 17.05168732 32.86634119 15.8125 25.9375 C15.63525391 24.97650391 15.45800781 24.01550781 15.27539062 23.02539062 C14.84449567 20.6845829 14.41948072 18.34287515 14 16 C13.01 16 12.02 16 11 16 C8.07427406 27.86224226 7.4688043 39.26263211 7.3125 51.4375 C7.27923238 53.24807004 7.24473449 55.0586179 7.20898438 56.86914062 C7.12518295 61.24596856 7.05787722 65.62275568 7 70 C5.89527344 70.15339844 4.79054688 70.30679688 3.65234375 70.46484375 C1.01652799 70.85105419 -1.44488251 71.2845671 -4 72 C-5.20184872 68.39445385 -5.32051572 64.96459442 -5.5 61.203125 C-5.54056015 60.42531174 -5.5811203 59.64749847 -5.62290955 58.84611511 C-5.7535818 56.31429896 -5.87767209 53.78223239 -6 51.25 C-6.0623735 49.96477951 -6.0623735 49.96477951 -6.12600708 48.65359497 C-6.16764984 47.79474701 -6.2092926 46.93589905 -6.25219727 46.05102539 C-6.29384506 45.19331039 -6.33549286 44.3355954 -6.37840271 43.45188904 C-6.46200911 41.72744229 -6.54498736 40.00296498 -6.62733459 38.27845764 C-6.86670995 33.36101577 -7.1643096 28.45319442 -7.52734375 23.54296875 C-7.63272461 21.96370605 -7.63272461 21.96370605 -7.74023438 20.35253906 C-7.86805794 18.46366121 -8.0152931 16.57595669 -8.18554688 14.69042969 C-8.46204923 10.19814148 -8.53263735 8.66015802 -5.6015625 5.02734375 C-4.74304688 4.35832031 -3.88453125 3.68929687 -3 3 C-2.484375 2.38125 -1.96875 1.7625 -1.4375 1.125 C-0.963125 0.75375 -0.48875 0.3825 0 0 Z " fill="#F9FBFD" transform="translate(106,52)"/>
<path d="M0 0 C4.87732722 -0.594796 7.70565077 0.39641925 11.53149414 3.25073242 C14.45628463 6.73470979 13.71489934 10.99909273 13.4375 15.3125 C13.40591797 16.24384766 13.37433594 17.17519531 13.34179688 18.13476562 C13.25953205 20.42642852 13.14471638 22.71157286 13 25 C22.40230024 18.39757992 28.61574385 11.09645525 32 0 C34.475 0.495 34.475 0.495 37 1 C36.07235091 10.90964822 27.99652091 18.67561597 20.62890625 24.79296875 C19 26 19 26 17 27 C17.72703125 27.45826172 17.72703125 27.45826172 18.46875 27.92578125 C29.14542978 35.2146684 34.27073893 45.99880804 39.67529297 57.35791016 C40.07893066 58.20144043 40.48256836 59.0449707 40.8984375 59.9140625 C41.25599121 60.6767041 41.61354492 61.4393457 41.98193359 62.22509766 C42.88040427 64.17076252 42.88040427 64.17076252 45 65 C45.66 63.35 46.32 61.7 47 60 C47.66 60 48.32 60 49 60 C47.92598892 62.91517292 47.22189824 64.77810176 45 67 C41.37045535 67.49493791 39.36520614 67.1787179 36.0625 65.5625 C28.8953018 59.56545661 24.39203769 51.59954685 20.0625 43.4375 C19.56943359 42.52419922 19.07636719 41.61089844 18.56835938 40.66992188 C17.37147872 38.45046358 16.18221586 36.2272934 15 34 C14.97494385 34.93271729 14.9498877 35.86543457 14.92407227 36.82641602 C14.82847932 40.31349916 14.72927541 43.80044188 14.62768555 47.28735352 C14.58458874 48.79154499 14.54289793 50.29577748 14.50268555 51.80004883 C14.44436543 53.97229326 14.38085516 56.14433602 14.31640625 58.31640625 C14.27974854 59.62037354 14.24309082 60.92434082 14.20532227 62.26782227 C13.65069916 72.34930084 13.65069916 72.34930084 12 74 C10.37210648 73.96207417 8.74571258 73.84487354 7.125 73.6875 C6.24070312 73.60886719 5.35640625 73.53023438 4.4453125 73.44921875 C2 73 2 73 -1 71 C-1.66015625 68.8984375 -1.66015625 68.8984375 -2.0625 66.375 C-2.61275282 63.17894821 -3.20651538 60.06562027 -4.0625 56.9375 C-7.28007594 44.19387246 -8.08094088 27.79425811 -2.96484375 15.515625 C-1.88646575 12.70398358 -1.62974001 10.31062609 -1.4375 7.3125 C-1.09828393 2.19656786 -1.09828393 2.19656786 0 0 Z " fill="#F9FAFD" transform="translate(15,50)"/>
<path d="M0 0 C3.75005438 5.62508156 7.20129204 12.1888837 8 19 C6.63525911 24.08822688 4.13434279 27.81307941 1 32 C0.4946875 32.77859375 -0.010625 33.5571875 -0.53125 34.359375 C-1.8125 36.3125 -1.8125 36.3125 -4 39 C-4.66 39 -5.32 39 -6 39 C-6.24234375 39.58136719 -6.4846875 40.16273438 -6.734375 40.76171875 C-11.9604958 50.00421017 -26.32124152 56.5633857 -36.25 59.4375 C-40.87164372 60.13074656 -45.33777434 60.17196734 -50 60 C-47.66785852 58.79371992 -45.50357861 57.8345262 -43 57 C-46.63 56.67 -50.26 56.34 -54 56 C-54 55.01 -54 54.02 -54 53 C-54.94978897 50.84971696 -54.94978897 50.84971696 -56 49 C-54.71222656 49.01160156 -53.42445312 49.02320313 -52.09765625 49.03515625 C-50.41927228 49.0445327 -48.74088674 49.05363305 -47.0625 49.0625 C-46.21236328 49.07087891 -45.36222656 49.07925781 -44.48632812 49.08789062 C-43.67744141 49.09111328 -42.86855469 49.09433594 -42.03515625 49.09765625 C-41.2862915 49.10289307 -40.53742676 49.10812988 -39.76586914 49.11352539 C-37.97332261 49.19341752 -37.97332261 49.19341752 -37 48 C-40.96 47.67 -44.92 47.34 -49 47 C-49 46.34 -49 45.68 -49 45 C-50.32 44.34 -51.64 43.68 -53 43 C-51.90300781 43.10699219 -50.80601563 43.21398437 -49.67578125 43.32421875 C-48.22142806 43.44619676 -46.76699637 43.56724138 -45.3125 43.6875 C-44.2306543 43.79674805 -44.2306543 43.79674805 -43.12695312 43.90820312 C-38.31340156 44.28185781 -35.90170956 43.7545187 -32 41 C-30.87980469 40.54367188 -29.75960937 40.08734375 -28.60546875 39.6171875 C-24.69053724 37.86119439 -21.6566712 35.76701426 -18.3125 33.125 C-17.75755859 32.70347656 -17.20261719 32.28195313 -16.63085938 31.84765625 C-9.4154783 26.23664647 -4.33891285 18.71687947 -2.53125 9.6484375 C-2.33401172 7.76762957 -2.1652533 5.88388767 -2 4 C-0.9375 1.5 -0.9375 1.5 0 0 Z " fill="#502880" transform="translate(150,98)"/>
<path d="M0 0 C1.35917511 0.03148172 2.71862633 0.05291991 4.078125 0.06347656 C18.27461966 0.17484892 27.91689985 3.84156665 38.69091797 12.92285156 C39.68091797 13.58285156 40.67091797 14.24285156 41.69091797 14.92285156 C41.69091797 15.58285156 41.69091797 16.24285156 41.69091797 16.92285156 C42.35091797 16.92285156 43.01091797 16.92285156 43.69091797 16.92285156 C53.71328566 26.73728631 60.50685951 40.34455269 63.69091797 53.92285156 C63.87654297 54.54160156 64.06216797 55.16035156 64.25341797 55.79785156 C64.83407833 58.61820189 64.78468323 61.29644786 64.75341797 64.17285156 C64.74439453 65.25050781 64.73537109 66.32816406 64.72607422 67.43847656 C64.71447266 68.25832031 64.70287109 69.07816406 64.69091797 69.92285156 C64.36091797 69.92285156 64.03091797 69.92285156 63.69091797 69.92285156 C63.53236328 68.88386719 63.37380859 67.84488281 63.21044922 66.77441406 C61.2124502 53.2642489 61.2124502 53.2642489 53.79638672 42.20410156 C50.48420297 40.18852407 47.52285217 40.24217941 43.69091797 39.92285156 C43.72572266 39.30796875 43.76052734 38.69308594 43.79638672 38.05957031 C43.83699219 36.84720703 43.83699219 36.84720703 43.87841797 35.61035156 C43.91322266 34.80984375 43.94802734 34.00933594 43.98388672 33.18457031 C43.62523307 30.41576415 42.72037471 29.73924198 40.69091797 27.92285156 C40.69091797 27.26285156 40.69091797 26.60285156 40.69091797 25.92285156 C40.09666016 25.64957031 39.50240234 25.37628906 38.89013672 25.09472656 C36.76414335 23.96187042 35.26913011 22.79469086 33.50341797 21.17285156 C21.72957901 10.8612881 9.54908754 7.02731133 -5.80908203 5.79785156 C-6.82228516 5.71148438 -7.83548828 5.62511719 -8.87939453 5.53613281 C-11.35553061 5.32589484 -13.83200229 5.1216059 -16.30908203 4.92285156 C-13.10202338 -2.17849259 -6.98515548 -0.18255336 0 0 Z " fill="#6227EF" transform="translate(98.30908203125,16.0771484375)"/>
<path d="M0 0 C1.051875 0.02255859 2.10375 0.04511719 3.1875 0.06835938 C5.75155243 0.12663329 8.31247076 0.20837122 10.875 0.3125 C10.215 1.3025 9.555 2.2925 8.875 3.3125 C8.63229175 6.74557165 8.63229175 6.74557165 8.75 10.5 C8.76804688 11.77230469 8.78609375 13.04460937 8.8046875 14.35546875 C8.82789063 15.33128906 8.85109375 16.30710937 8.875 17.3125 C7.97652344 16.99023438 7.07804687 16.66796875 6.15234375 16.3359375 C1.29306827 14.81849986 -3.45536508 14.18792851 -8.2578125 16.2109375 C-9.92855842 17.16468315 -11.53478488 18.22980034 -13.125 19.3125 C-13.558125 18.549375 -13.99125 17.78625 -14.4375 17 C-17.15624441 12.67014779 -19.27702909 11.01584113 -24.125 9.3125 C-22.27515537 4.65807226 -19.43264884 3.36882464 -15.04394531 1.30712891 C-10.04014719 -0.39791238 -5.22897903 -0.21621097 0 0 Z " fill="#2F85C0" transform="translate(90.125,56.6875)"/>
<path d="M0 0 C2.04650391 3.06975587 2.99704565 5.69084152 4.125 9.1875 C4.47820312 10.27417969 4.83140625 11.36085938 5.1953125 12.48046875 C5.59363281 13.72763672 5.59363281 13.72763672 6 15 C5.01 14.67 4.02 14.34 3 14 C2.773125 14.66 2.54625 15.32 2.3125 16 C0.6121185 19.88658628 -1.39623084 23.63679817 -4 27 C-4.66 27 -5.32 27 -6 27 C-6.2475 27.53625 -6.495 28.0725 -6.75 28.625 C-9.99148618 34.78382374 -12.93731388 38.07913906 -19 41.25 C-19.61617187 41.58773437 -20.23234375 41.92546875 -20.8671875 42.2734375 C-22.56825697 43.20062987 -24.2836763 44.10135882 -26 45 C-26.63454102 45.36174316 -27.26908203 45.72348633 -27.92285156 46.09619141 C-30.30326624 47.13195717 -31.9606454 47.23026155 -34.546875 47.1953125 C-35.81337891 47.18564453 -35.81337891 47.18564453 -37.10546875 47.17578125 C-38.41451172 47.15064453 -38.41451172 47.15064453 -39.75 47.125 C-40.63816406 47.11597656 -41.52632812 47.10695312 -42.44140625 47.09765625 C-44.62788058 47.07414577 -46.81380094 47.04128499 -49 47 C-49 46.34 -49 45.68 -49 45 C-50.32 44.34 -51.64 43.68 -53 43 C-51.90300781 43.10699219 -50.80601563 43.21398437 -49.67578125 43.32421875 C-48.22142806 43.44619676 -46.76699637 43.56724138 -45.3125 43.6875 C-44.2306543 43.79674805 -44.2306543 43.79674805 -43.12695312 43.90820312 C-38.31340156 44.28185781 -35.90170956 43.7545187 -32 41 C-30.87980469 40.54367188 -29.75960937 40.08734375 -28.60546875 39.6171875 C-24.69053724 37.86119439 -21.6566712 35.76701426 -18.3125 33.125 C-17.75755859 32.70347656 -17.20261719 32.28195313 -16.63085938 31.84765625 C-9.4154783 26.23664647 -4.33891285 18.71687947 -2.53125 9.6484375 C-2.33401172 7.76762957 -2.1652533 5.88388767 -2 4 C-0.9375 1.5 -0.9375 1.5 0 0 Z " fill="#3D72DC" transform="translate(150,98)"/>
<path d="M0 0 C1.32 0.33 2.64 0.66 4 1 C4 3.31 4 5.62 4 8 C5.32 8.33 6.64 8.66 8 9 C8 9.99 8 10.98 8 12 C8.66 12 9.32 12 10 12 C10 12.66 10 13.32 10 14 C11.093125 14.268125 12.18625 14.53625 13.3125 14.8125 C18.13357731 16.36505032 18.13357731 16.36505032 20 19 C20 19.66 20 20.32 20 21 C24.62 21 29.24 21 34 21 C31 24 31 24 27.27734375 24.328125 C25.83053368 24.31751594 24.38377019 24.29092011 22.9375 24.25 C21.83825195 24.24226563 21.83825195 24.24226563 20.71679688 24.234375 C15.30986873 24.15493437 15.30986873 24.15493437 13 23 C14.98 25.97 14.98 25.97 17 29 C12.61414671 29.70173653 8.44209357 30.10834375 4 30 C-1.35716455 20.91611229 -0.12087616 10.19388937 0 0 Z " fill="#4351A1" transform="translate(81,124)"/>
<path d="M0 0 C2.77572191 1.38786095 3.14650242 3.09718229 4.5 5.875 C9.18320065 14.69043651 16.08746965 21.96148999 24 28 C21.66239424 30.33760576 21.06741017 30.34295127 17.875 30.4375 C10.05265665 30.20008063 5.54349158 25.80078119 0.375 20.3125 C-3.7471454 15.56167385 -7.00539018 10.51947693 -10 5 C-6.8035914 3.93453047 -4.34252724 3.92572162 -1 4 C-0.67 2.68 -0.34 1.36 0 0 Z " fill="#5440EE" transform="translate(28,119)"/>
<path d="M0 0 C0.99 0.33 1.98 0.66 3 1 C4 4 4 4 2.7421875 6.890625 C-4.11355542 19.22522523 -4.11355542 19.22522523 -8 24 C-8.66 24 -9.32 24 -10 24 C-10.24234375 24.58136719 -10.4846875 25.16273438 -10.734375 25.76171875 C-15.9604958 35.00421017 -30.32124152 41.5633857 -40.25 44.4375 C-44.87164372 45.13074656 -49.33777434 45.17196734 -54 45 C-50.81096508 43.24184471 -47.70320567 42.35291016 -44.1875 41.4375 C-28.98750272 36.79732126 -15.60767342 27.14252781 -7.4375 13.375 C-7.00308594 12.55773437 -6.56867188 11.74046875 -6.12109375 10.8984375 C-5 9 -5 9 -3 8 C-2.09656316 6.11736119 -2.09656316 6.11736119 -1.375 3.9375 C-1.11460937 3.20402344 -0.85421875 2.47054687 -0.5859375 1.71484375 C-0.39257812 1.14894531 -0.19921875 0.58304687 0 0 Z " fill="#6027F0" transform="translate(154,113)"/>
<path d="M0 0 C0 5.70374983 -4.30318205 10.86826229 -8 15 C-12.80225409 19.68791471 -17.74999185 21.70683154 -24 24 C-24.66 24.33 -25.32 24.66 -26 25 C-27.54023996 25.06950541 -29.08334988 25.08452357 -30.625 25.0625 C-31.85089844 25.04896484 -31.85089844 25.04896484 -33.1015625 25.03515625 C-33.72804688 25.02355469 -34.35453125 25.01195312 -35 25 C-35 24.34 -35 23.68 -35 23 C-35.99 22.67 -36.98 22.34 -38 22 C-37.34 22 -36.68 22 -36 22 C-36 21.01 -36 20.02 -36 19 C-33.39858774 17.69929387 -31.5856237 18.00734951 -28.6875 18.125 C-24.16192444 18.16035606 -21.62407605 17.89926084 -18 15 C-16.576875 14.1028125 -16.576875 14.1028125 -15.125 13.1875 C-9.58546165 9.30982315 -4.7026691 4.84517422 0 0 Z " fill="#2BA1EB" transform="translate(142,113)"/>
<path d="M0 0 C1.38913518 4.16740553 0.07501894 5.71361765 -1.8125 9.625 C-7.55639403 21.05974029 -18.13284103 29.40689694 -30 34 C-30.598125 34.37125 -31.19625 34.7425 -31.8125 35.125 C-35.17839415 36.47135766 -38.43260954 36.62867947 -42 36 C-44.5 34 -44.5 34 -46 32 C-42.36838968 30.51010859 -39.4975904 29.92365215 -35.625 30.125 C-31.27009949 30.24210657 -28.57488277 29.13506127 -24.8359375 26.9921875 C-23 26 -23 26 -19.9375 25.25 C-13.12158601 22.34961107 -8.2823839 14.45625924 -5 8 C-4.83371094 7.3090625 -4.66742188 6.618125 -4.49609375 5.90625 C-3.78193702 3.1620887 -2.06187804 1.86234146 0 0 Z " fill="#3485E3" transform="translate(147,107)"/>
<path d="M0 0 C0.33 0 0.66 0 1 0 C1 16.5 1 33 1 50 C-4.72032205 44.27967795 -4.06231343 31.77380625 -4.1875 24.1875 C-4.12401926 15.80804296 -3.33386038 7.74632266 0 0 Z " fill="#1F82F4" transform="translate(13,63)"/>
<path d="M0 0 C1.13643966 3.40931897 0.86747764 4.00335456 -0.4375 7.1875 C-0.86869141 8.26064453 -0.86869141 8.26064453 -1.30859375 9.35546875 C-1.65083984 10.16951172 -1.65083984 10.16951172 -2 11 C-2.66 11 -3.32 11 -4 11 C-4.20625 11.66 -4.4125 12.32 -4.625 13 C-8.07694759 20.53152202 -14.36376015 28.08918251 -21 33 C-22.96484375 32.625 -22.96484375 32.625 -25 32 C-27.46177924 32.74527967 -27.46177924 32.74527967 -29.9375 33.9375 C-33.50749067 35.56523918 -36.06472152 36.23231519 -40 36 C-37.84493796 33.84493796 -36.97306146 33.58971824 -34.125 32.8125 C-28.76920846 31.14044801 -24.25906057 28.35903736 -19.50390625 25.42578125 C-17 24 -17 24 -15 24 C-14.7525 23.278125 -14.505 22.55625 -14.25 21.8125 C-12.87730408 18.72393418 -11.27646704 16.48988582 -9 14 C-8.34 14 -7.68 14 -7 14 C-6.731875 13.2575 -6.46375 12.515 -6.1875 11.75 C-5.04702351 9.10889655 -3.71322928 7.28430571 -2 5 C-1.28837557 3.35202764 -0.60968047 1.68834592 0 0 Z " fill="#4842B3" transform="translate(153,111)"/>
<path d="M0 0 C0.66 0.33 1.32 0.66 2 1 C1.92578125 2.7421875 1.92578125 2.7421875 1 5 C-1.26425591 6.55246524 -3.40157668 7.85048174 -5.8125 9.125 C-6.44220703 9.47175781 -7.07191406 9.81851563 -7.72070312 10.17578125 C-9.47107648 11.13453769 -11.23515045 12.06815944 -13 13 C-13.63671631 13.36319336 -14.27343262 13.72638672 -14.92944336 14.10058594 C-17.30581264 15.13283973 -18.96552328 15.23019563 -21.546875 15.1953125 C-22.81337891 15.18564453 -22.81337891 15.18564453 -24.10546875 15.17578125 C-24.97816406 15.15902344 -25.85085937 15.14226562 -26.75 15.125 C-27.63816406 15.11597656 -28.52632812 15.10695312 -29.44140625 15.09765625 C-31.62788058 15.07414577 -33.81380094 15.04128499 -36 15 C-36 14.34 -36 13.68 -36 13 C-37.32 12.34 -38.64 11.68 -40 11 C-39.01902344 11.13019531 -38.03804688 11.26039063 -37.02734375 11.39453125 C-26.7201861 12.53305278 -18.44112782 11.61381749 -9 7 C-6.76234545 5.02359842 -6.76234545 5.02359842 -5 3 C-2.375 1.1875 -2.375 1.1875 0 0 Z " fill="#3F5DBE" transform="translate(137,130)"/>
<path d="M0 0 C2.475 0.495 2.475 0.495 5 1 C4.07965541 10.83161762 -3.90314951 18.56617631 -11.17578125 24.6953125 C-13.04293185 26.03070501 -14.92003726 27.03577886 -17 28 C-16.9375 25.875 -16.9375 25.875 -16 23 C-14.62109375 21.71875 -14.62109375 21.71875 -12.875 20.375 C-6.38313783 15.20828083 -2.36712376 7.85192271 0 0 Z " fill="#ECEFF7" transform="translate(47,50)"/>
<path d="M0 0 C3.3 0 6.6 0 10 0 C10.185625 1.19625 10.37125 2.3925 10.5625 3.625 C12.06995921 10.60397782 15.67300385 16.74631472 19 23 C10.19890517 19.33619582 4.20115073 9.15517495 0 1 C0 0.67 0 0.34 0 0 Z " fill="#2D6CF2" transform="translate(18,123)"/>
<path d="M0 0 C0.66 0.33 1.32 0.66 2 1 C1.34 3.31 0.68 5.62 0 8 C1.32 8 2.64 8 4 8 C4 8.66 4 9.32 4 10 C4.78375 10.2475 5.5675 10.495 6.375 10.75 C9.32317108 12.15389099 9.9024777 13.00675737 11 16 C11.66 16 12.32 16 13 16 C13.37125 17.0725 13.7425 18.145 14.125 19.25 C15.81332804 23.26789605 18.25182371 24.79998348 22 27 C22.33 27.66 22.66 28.32 23 29 C20.03 28.01 17.06 27.02 14 26 C14 25.34 14 24.68 14 24 C13.34 24 12.68 24 12 24 C11.67 23.01 11.34 22.02 11 21 C10.01 20.67 9.02 20.34 8 20 C8 17.69 8 15.38 8 13 C7.236875 12.855625 6.47375 12.71125 5.6875 12.5625 C1.70445344 11.72883909 -0.18593167 10.81406833 -3 8 C-3.99 7.67 -4.98 7.34 -6 7 C-6 6.34 -6 5.68 -6 5 C-6.66 4.67 -7.32 4.34 -8 4 C-6.68 4 -5.36 4 -4 4 C-4 3.34 -4 2.68 -4 2 C-2.125 0.9375 -2.125 0.9375 0 0 Z " fill="#3384D0" transform="translate(77,112)"/>
<path d="M0 0 C0.54140625 0.24363281 1.0828125 0.48726562 1.640625 0.73828125 C1.06054688 1.33253906 0.48046875 1.92679688 -0.1171875 2.5390625 C-5.71851031 8.48238027 -9.79914649 14.39443734 -13.359375 21.73828125 C-13.689375 21.73828125 -14.019375 21.73828125 -14.359375 21.73828125 C-14.4625 20.97515625 -14.565625 20.21203125 -14.671875 19.42578125 C-15.40301539 16.56768701 -16.12889413 15.5808524 -18.359375 13.73828125 C-16.984375 11.73828125 -16.984375 11.73828125 -15.359375 9.73828125 C-14.699375 9.73828125 -14.039375 9.73828125 -13.359375 9.73828125 C-13.359375 9.07828125 -13.359375 8.41828125 -13.359375 7.73828125 C-11.09375 5.7578125 -11.09375 5.7578125 -8.109375 3.55078125 C-7.13484375 2.81472656 -6.1603125 2.07867187 -5.15625 1.3203125 C-2.359375 -0.26171875 -2.359375 -0.26171875 0 0 Z " fill="#1C93EE" transform="translate(42.359375,38.26171875)"/>
<path d="M0 0 C1.99097846 2.98646769 2.94124926 5.59687262 4 9 C3.01 8.67 2.02 8.34 1 8 C0.773125 8.66 0.54625 9.32 0.3125 10 C-1.3878815 13.88658628 -3.39623084 17.63679817 -6 21 C-6.66 21 -7.32 21 -8 21 C-8.268125 21.61875 -8.53625 22.2375 -8.8125 22.875 C-10.8691963 26.55540391 -14.22905997 27.57315783 -18 29 C-16.91562645 26.23977642 -16.01916 25.0146221 -13.625 23.1875 C-10.95857979 20.96548316 -9.58004859 18.84506189 -7.97265625 15.79296875 C-7 14 -7 14 -4.875 10.9375 C-2.99408351 7.99073083 -1.98598307 5.33717347 -1 2 C-0.67 1.34 -0.34 0.68 0 0 Z " fill="#4858E0" transform="translate(152,104)"/>
<path d="M0 0 C3.55307419 0.51996208 5.571803 1.5306625 7.9921875 4.18359375 C13.08513387 11.06623011 13.08513387 11.06623011 12.75390625 14.69921875 C12 17 12 17 11 19 C8 18 8 18 6.92504883 16.44946289 C6.60560303 15.7971167 6.28615723 15.14477051 5.95703125 14.47265625 C5.60576172 13.76302734 5.25449219 13.05339844 4.89257812 12.32226562 C4.53615234 11.57654297 4.17972656 10.83082031 3.8125 10.0625 C3.44447266 9.32064453 3.07644531 8.57878906 2.69726562 7.81445312 C0 2.29481679 0 2.29481679 0 0 Z " fill="#573DBF" transform="translate(49,96)"/>
<path d="M0 0 C-4.625 4.875 -4.625 4.875 -8 6 C-8.928125 5.979375 -9.85625 5.95875 -10.8125 5.9375 C-14.00536695 5.83538551 -14.00536695 5.83538551 -16.875 7 C-22.25339338 8.72108588 -27.52128562 8.3696786 -33 7 C-33 6.34 -33 5.68 -33 5 C-32.12859375 4.96261719 -31.2571875 4.92523438 -30.359375 4.88671875 C-17.18043479 4.19799688 -17.18043479 4.19799688 -4.8515625 -0.16015625 C-3 -1 -3 -1 0 0 Z " fill="#4B389C" transform="translate(131,143)"/>
<path d="M0 0 C-0.33 0.66 -0.66 1.32 -1 2 C-3.39068364 2.40242181 -5.71745052 2.69980199 -8.125 2.9375 C-17.39314276 3.9699438 -17.39314276 3.9699438 -25 9 C-26.32 9 -27.64 9 -29 9 C-27.1507286 4.46880096 -24.58826168 3.04499126 -20.28515625 0.97265625 C-13.69805062 -0.9776283 -6.79731738 -0.35484836 0 0 Z " fill="#3665D1" transform="translate(95,57)"/>
<path d="M0 0 C5.03163018 4.29785078 10.02718443 8.63425542 15 13 C13 15 13 15 10.8359375 15.1953125 C9.61777344 15.16050781 9.61777344 15.16050781 8.375 15.125 C7.55773438 15.10695312 6.74046875 15.08890625 5.8984375 15.0703125 C5.27195312 15.04710937 4.64546875 15.02390625 4 15 C3 12 3 12 3.9375 9.8125 C4.4634375 8.9153125 4.4634375 8.9153125 5 8 C4.175 7.05125 3.35 6.1025 2.5 5.125 C0 2.25 0 2.25 0 0 Z " fill="#5E2EF3" transform="translate(37,134)"/>
<path d="M0 0 C1.18239258 0.01353516 1.18239258 0.01353516 2.38867188 0.02734375 C4.32174666 0.05077496 6.2546638 0.08664162 8.1875 0.125 C6.78325991 2.93348017 5.07885802 3.04914585 2.1875 4.125 C1.589375 4.49625 0.99125 4.8675 0.375 5.25 C-2.99089415 6.59635766 -6.24510954 6.75367947 -9.8125 6.125 C-12.3125 4.125 -12.3125 4.125 -13.8125 2.125 C-9.18433267 -0.23082065 -5.05715865 -0.11021469 0 0 Z " fill="#3484D5" transform="translate(114.8125,136.875)"/>
<path d="M0 0 C0.556875 0.474375 1.11375 0.94875 1.6875 1.4375 C4.18346074 3.12395996 6.0446237 3.58953107 9 4 C8.34 5.32 7.68 6.64 7 8 C7.804375 8.12375 8.60875 8.2475 9.4375 8.375 C10.283125 8.58125 11.12875 8.7875 12 9 C12.33 9.66 12.66 10.32 13 11 C10.89542225 10.52264214 8.79135078 10.04305171 6.6875 9.5625 C5.51574219 9.29566406 4.34398438 9.02882813 3.13671875 8.75390625 C0 8 0 8 -3 7 C-4.99961564 6.96079185 -7.00049364 6.95556653 -9 7 C-9 6.67 -9 6.34 -9 6 C-8.071875 5.7525 -7.14375 5.505 -6.1875 5.25 C-2.83541675 3.93545755 -1.8122197 3.02036616 0 0 Z " fill="#4F59CC" transform="translate(64,111)"/>
<path d="M0 0 C0.66 0 1.32 0 2 0 C2 10.23 2 20.46 2 31 C1.67 31 1.34 31 1 31 C-2.14930209 20.76476819 -1.15967544 10.51991294 0 0 Z " fill="#3172F0" transform="translate(12,74)"/>
<path d="M0 0 C1.13643966 3.40931897 0.86747764 4.00335456 -0.4375 7.1875 C-0.72496094 7.90292969 -1.01242188 8.61835937 -1.30859375 9.35546875 C-1.53675781 9.89816406 -1.76492187 10.44085938 -2 11 C-2.66 11 -3.32 11 -4 11 C-4.226875 11.680625 -4.45375 12.36125 -4.6875 13.0625 C-6.30934698 16.69234801 -8.21133598 20.13430106 -11 23 C-13.1640625 23.703125 -13.1640625 23.703125 -15 24 C-13.63312778 20.01328937 -11.84804907 17.11505367 -9 14 C-8.34 14 -7.68 14 -7 14 C-6.731875 13.2575 -6.46375 12.515 -6.1875 11.75 C-5.04702351 9.10889655 -3.71322928 7.28430571 -2 5 C-1.28837557 3.35202764 -0.60968047 1.68834592 0 0 Z " fill="#503BC9" transform="translate(153,111)"/>
<path d="M0 0 C0.75732422 0.04833984 1.51464844 0.09667969 2.29492188 0.14648438 C3.08060547 0.20255859 3.86628906 0.25863281 4.67578125 0.31640625 C5.47306641 0.36861328 6.27035156 0.42082031 7.09179688 0.47460938 C9.05764647 0.60409647 11.0230179 0.74080666 12.98828125 0.87890625 C11.98828125 2.87890625 11.98828125 2.87890625 8.98828125 4.00390625 C4.66599037 5.15412087 0.42871252 5.06014834 -4.01171875 4.87890625 C-4.01171875 4.21890625 -4.01171875 3.55890625 -4.01171875 2.87890625 C-5.00171875 2.87890625 -5.99171875 2.87890625 -7.01171875 2.87890625 C-7.01171875 2.21890625 -7.01171875 1.55890625 -7.01171875 0.87890625 C-4.18726283 -0.06257906 -2.87000257 -0.1942107 0 0 Z " fill="#51256F" transform="translate(95.01171875,153.12109375)"/>
<path d="M0 0 C0.33 0 0.66 0 1 0 C1.33 3.63 1.66 7.26 2 11 C2.66 11 3.32 11 4 11 C4.31453125 11.73605469 4.6290625 12.47210938 4.953125 13.23046875 C8.17826235 20.5991349 8.17826235 20.5991349 13 27 C12.34 27.66 11.68 28.32 11 29 C5.23511509 23.60227908 0.71077695 14.48377339 -0.51953125 6.72265625 C-0.50302601 4.42182588 -0.39202473 2.26503175 0 0 Z " fill="#465DF3" transform="translate(28,119)"/>
<path d="M0 0 C3.36720387 1.39332574 4.9859524 2.9789286 7 6 C7.66 5.67 8.32 5.34 9 5 C10.65 8.63 12.3 12.26 14 16 C10.02905295 14.01452648 8.22947616 12.37465609 5.3125 9.125 C4.52488281 8.26132813 3.73726562 7.39765625 2.92578125 6.5078125 C1.14376787 4.18721902 0.39103185 2.84989312 0 0 Z " fill="#2E90F7" transform="translate(23,130)"/>
<path d="M0 0 C0 5.70374983 -4.30318205 10.86826229 -8 15 C-13.34435262 20 -13.34435262 20 -16 20 C-14.74742108 16.24226324 -12.91481378 14.64366832 -10 12 C-9.278125 11.67 -8.55625 11.34 -7.8125 11 C-5.19415838 9.55539773 -4.83648071 7.78826903 -4 5 C-4 4.34 -4 3.68 -4 3 C-2 1.375 -2 1.375 0 0 Z " fill="#2E97E8" transform="translate(142,113)"/>
<path d="M0 0 C-0.69867188 0.33773437 -1.39734375 0.67546875 -2.1171875 1.0234375 C-3.02726562 1.46945313 -3.93734375 1.91546875 -4.875 2.375 C-5.77992187 2.81585938 -6.68484375 3.25671875 -7.6171875 3.7109375 C-10.09534472 4.90502699 -10.09534472 4.90502699 -12 7 C-14.65537372 7.56520003 -17.29144713 7.73788198 -20 8 C-19.67 7.01 -19.34 6.02 -19 5 C-17.02 5 -15.04 5 -13 5 C-13.33 4.01 -13.66 3.02 -14 2 C-12.42085985 1.46658816 -10.83645613 0.94874237 -9.25 0.4375 C-8.36828125 0.14746094 -7.4865625 -0.14257812 -6.578125 -0.44140625 C-3.92165684 -1.01697435 -2.52968894 -0.89248371 0 0 Z " fill="#3A57AA" transform="translate(78,58)"/>
<path d="M0 0 C0.66 0.33 1.32 0.66 2 1 C4.08354169 8.06089129 4.22311393 14.67442601 4 22 C3.67 22 3.34 22 3 22 C2.79503906 20.90300781 2.59007812 19.80601563 2.37890625 18.67578125 C2.10678707 17.22135113 1.83465075 15.76692422 1.5625 14.3125 C1.36043945 13.2306543 1.36043945 13.2306543 1.15429688 12.12695312 C1.02216797 11.42119141 0.89003906 10.71542969 0.75390625 9.98828125 C0.6264502 9.3020166 0.49899414 8.61575195 0.36767578 7.90869141 C0.05411397 6.28091833 -0.29896695 4.66084034 -0.66015625 3.04296875 C-0.77230469 2.36878906 -0.88445312 1.69460937 -1 1 C-0.67 0.67 -0.34 0.34 0 0 Z " fill="#712AF1" transform="translate(159,64)"/>
<path d="M0 0 C0.66 0.33 1.32 0.66 2 1 C1.34 3.31 0.68 5.62 0 8 C-2.97 7.505 -2.97 7.505 -6 7 C-6 6.34 -6 5.68 -6 5 C-6.66 4.67 -7.32 4.34 -8 4 C-6.68 4 -5.36 4 -4 4 C-4 3.34 -4 2.68 -4 2 C-2.125 0.9375 -2.125 0.9375 0 0 Z " fill="#3F7AEC" transform="translate(77,112)"/>
<path d="M0 0 C0.91007812 0.00902344 1.82015625 0.01804688 2.7578125 0.02734375 C3.45648438 0.03894531 4.15515625 0.05054688 4.875 0.0625 C4.545 1.0525 4.215 2.0425 3.875 3.0625 C2.41763913 3.25741452 0.95905407 3.44319358 -0.5 3.625 C-1.31210938 3.72941406 -2.12421875 3.83382812 -2.9609375 3.94140625 C-5.125 4.0625 -5.125 4.0625 -7.125 3.0625 C-7.125 2.4025 -7.125 1.7425 -7.125 1.0625 C-4.60024538 -0.19987731 -2.81299534 -0.03606404 0 0 Z " fill="#25B1F3" transform="translate(113.125,130.9375)"/>
<path d="M0 0 C0.66 0.33 1.32 0.66 2 1 C1.360625 1.2475 0.72125 1.495 0.0625 1.75 C-2.18741541 2.81562433 -2.18741541 2.81562433 -2.75 5.125 C-2.8325 5.74375 -2.915 6.3625 -3 7 C-4.32 7 -5.64 7 -7 7 C-7.0825 7.598125 -7.165 8.19625 -7.25 8.8125 C-8.20455872 11.5966296 -9.57132271 12.43311142 -12 14 C-12 11 -12 11 -10 8 C-9.34 8 -8.68 8 -8 8 C-8 7.34 -8 6.68 -8 6 C-6.25 4.4921875 -6.25 4.4921875 -4 2.875 C-3.2575 2.33617187 -2.515 1.79734375 -1.75 1.2421875 C-1.1725 0.83226562 -0.595 0.42234375 0 0 Z " fill="#3A91FB" transform="translate(37,40)"/>
<path d="M0 0 C1.32 0.33 2.64 0.66 4 1 C4 1.66 4 2.32 4 3 C4.9590625 2.7215625 4.9590625 2.7215625 5.9375 2.4375 C6.618125 2.293125 7.29875 2.14875 8 2 C8.33 2.33 8.66 2.66 9 3 C10.34747084 3.23075082 11.70377565 3.41153063 13.0625 3.5625 C14.361875 3.706875 15.66125 3.85125 17 4 C17 4.33 17 4.66 17 5 C6.07998433 6.60229895 6.07998433 6.60229895 1.75 4.1875 C0 2 0 2 0 0 Z " fill="#4B348B" transform="translate(94,147)"/>
<path d="M0 0 C0.66 0.33 1.32 0.66 2 1 C-1.14520953 5.52910172 -4.07157609 7.71180319 -9 10 C-11.4375 9.75 -11.4375 9.75 -13 9 C-12.13375 8.4225 -11.2675 7.845 -10.375 7.25 C-9.83230469 6.88777344 -9.28960937 6.52554688 -8.73046875 6.15234375 C-7.05229427 5.0348235 -5.36995969 3.92355829 -3.6875 2.8125 C-1.18660918 1.2502324 -1.18660918 1.2502324 0 0 Z " fill="#26ACEF" transform="translate(131,123)"/>
<path d="M0 0 C2.475 0.99 2.475 0.99 5 2 C5 2.66 5 3.32 5 4 C5.99 4.33 6.98 4.66 8 5 C4.17591794 6.27469402 2.76261161 5.25420387 -1 4 C-4.25044709 3.83201531 -4.25044709 3.83201531 -7 4 C-7 3.67 -7 3.34 -7 3 C-5.5459375 2.5359375 -5.5459375 2.5359375 -4.0625 2.0625 C-1.15934208 1.30476658 -1.15934208 1.30476658 0 0 Z " fill="#5845A9" transform="translate(62,114)"/>
<path d="M0 0 C5.28 0.33 10.56 0.66 16 1 C12.56925676 4.43074324 12.56925676 4.43074324 8.5625 4.4375 C7.80066406 4.45683594 7.03882812 4.47617188 6.25390625 4.49609375 C4 4 4 4 0 0 Z " fill="#3778C9" transform="translate(101,139)"/>
<path d="M0 0 C-5.1468192 3.16727335 -9.158256 3.35050464 -15 3 C-15 2.34 -15 1.68 -15 1 C-13.0641649 0.63684334 -11.12624752 0.28477269 -9.1875 -0.0625 C-8.10855469 -0.25972656 -7.02960938 -0.45695313 -5.91796875 -0.66015625 C-3 -1 -3 -1 0 0 Z " fill="#2D96E3" transform="translate(122,135)"/>
<path d="M0 0 C0.99 0.99 1.98 1.98 3 3 C3 3.66 3 4.32 3 5 C2.34 5 1.68 5 1 5 C1 11.93 1 18.86 1 26 C0.67 26 0.34 26 0 26 C0 17.42 0 8.84 0 0 Z " fill="#808DDF" transform="translate(29,82)"/>
<path d="M0 0 C3.2542015 2.83430453 4.5206753 4.68607774 5 9 C3.02 9 1.04 9 -1 9 C-0.67 6.03 -0.34 3.06 0 0 Z " fill="#5A44D4" transform="translate(143,47)"/>
<path d="M0 0 C1.13643966 3.40931897 0.86747764 4.00335456 -0.4375 7.1875 C-0.72496094 7.90292969 -1.01242188 8.61835937 -1.30859375 9.35546875 C-1.53675781 9.89816406 -1.76492187 10.44085938 -2 11 C-2.66 11 -3.32 11 -4 11 C-4 11.66 -4 12.32 -4 13 C-4.99 13.33 -5.98 13.66 -7 14 C-5.73792344 10.50501876 -4.21507148 7.95342864 -2 5 C-1.28837557 3.35202764 -0.60968047 1.68834592 0 0 Z " fill="#543BDE" transform="translate(153,111)"/>
<path d="M0 0 C1.32 0.33 2.64 0.66 4 1 C1.69 3.64 -0.62 6.28 -3 9 C-3.66 8.67 -4.32 8.34 -5 8 C-5 5 -5 5 -3.625 3.4375 C-3.08875 2.963125 -2.5525 2.48875 -2 2 C-1.34 1.34 -0.68 0.68 0 0 Z " fill="#2689EE" transform="translate(40,38)"/>
<path d="M0 0 C-2.40436026 3.60654039 -3.94679607 3.85452932 -8 5 C-8 4.34 -8 3.68 -8 3 C-9.32 2.67 -10.64 2.34 -12 2 C-7.82262526 0.40861915 -4.46839215 -0.21278058 0 0 Z " fill="#502D90" transform="translate(123,148)"/>
<path d="M0 0 C4.75 1.875 4.75 1.875 7 3 C6.67 4.65 6.34 6.3 6 8 C5.01 7.67 4.02 7.34 3 7 C1.3125 3.4375 1.3125 3.4375 0 0 Z " fill="#633CAE" transform="translate(54,107)"/>
<path d="M0 0 C0 3 0 3 -1.75 5.04296875 C-2.4925 5.75066406 -3.235 6.45835937 -4 7.1875 C-4.7425 7.90292969 -5.485 8.61835938 -6.25 9.35546875 C-7.11625 10.16951172 -7.11625 10.16951172 -8 11 C-8.66 10.67 -9.32 10.34 -10 10 C-8.65790834 5.97372501 -6.51298199 5.24830847 -3 3 C-1.20605554 1.37648891 -1.20605554 1.37648891 0 0 Z " fill="#5033B1" transform="translate(140,133)"/>
<path d="M0 0 C0.66 0.33 1.32 0.66 2 1 C-5.11389522 7.51936219 -5.11389522 7.51936219 -10 9 C-7.79444018 4.46634926 -5.57630536 2.98969798 -1 1 C-0.67 0.67 -0.34 0.34 0 0 Z " fill="#435DD2" transform="translate(137,130)"/>
<path d="M0 0 C1.65 0 3.3 0 5 0 C5.33 1.32 5.66 2.64 6 4 C3.36 4 0.72 4 -2 4 C-1.34 2.68 -0.68 1.36 0 0 Z " fill="#6436FB" transform="translate(84,17)"/>
<path d="M0 0 C2.97 0.33 5.94 0.66 9 1 C8.67 2.32 8.34 3.64 8 5 C6.68 5 5.36 5 4 5 C3.896875 4.360625 3.79375 3.72125 3.6875 3.0625 C3.460625 2.381875 3.23375 1.70125 3 1 C2.01 0.67 1.02 0.34 0 0 Z " fill="#4B21F3" transform="translate(86,16)"/>
<path d="M0 0 C0 0.99 0 1.98 0 3 C-1.65 3 -3.3 3 -5 3 C-5 2.34 -5 1.68 -5 1 C-5.99 1 -6.98 1 -8 1 C-8 0.34 -8 -0.32 -8 -1 C-4.37673261 -2.2077558 -3.35853631 -1.54311128 0 0 Z " fill="#4F2460" transform="translate(96,155)"/>
<path d="M0 0 C0.33 0 0.66 0 1 0 C3.11161731 9.41002278 3.11161731 9.41002278 4 14 C0.85713694 11.56681569 -0.29300255 9.73612972 -0.8125 5.875 C-1 2 -1 2 0 0 Z " fill="#386CF2" transform="translate(27,123)"/>
<path d="M0 0 C1.65 0 3.3 0 5 0 C5 0.66 5 1.32 5 2 C7.475 2.99 7.475 2.99 10 4 C7.33438378 4.98726527 6.09873015 5.0275526 3.3125 4.25 C1 3 1 3 0 0 Z " fill="#3486E2" transform="translate(76,120)"/>
<path d="M0 0 C-3.3340947 2.19097652 -6.04179141 3.43454163 -10 4 C-9.25 2.0625 -9.25 2.0625 -8 0 C-5.05360248 -1.27677226 -3.00864103 -0.96706319 0 0 Z " fill="#2E7CDA" transform="translate(76,62)"/>
<path d="M0 0 C3.2542015 2.83430453 4.5206753 4.68607774 5 9 C2.5 7.875 2.5 7.875 0 6 C-0.3125 2.8125 -0.3125 2.8125 0 0 Z " fill="#5F3ED4" transform="translate(57,102)"/>
<path d="M0 0 C1.2065625 0.0309375 1.2065625 0.0309375 2.4375 0.0625 C0.125 2.5625 0.125 2.5625 -2.5625 5.0625 C-3.5525 5.0625 -4.5425 5.0625 -5.5625 5.0625 C-3.15007962 0.07683121 -3.15007962 0.07683121 0 0 Z " fill="#5B1CF5" transform="translate(137.5625,141.9375)"/>
<path d="M0 0 C2.64 0.33 5.28 0.66 8 1 C7.01 1.33 6.02 1.66 5 2 C5 3.32 5 4.64 5 6 C4.01 5.67 3.02 5.34 2 5 C0.8125 2.4375 0.8125 2.4375 0 0 Z " fill="#3890F5" transform="translate(18,123)"/>
<path d="M0 0 C4.455 0.99 4.455 0.99 9 2 C7 4 7 4 3.875 4.125 C2.451875 4.063125 2.451875 4.063125 1 4 C0.67 2.68 0.34 1.36 0 0 Z " fill="#5940FF" transform="translate(43,145)"/>
<path d="M0 0 C2.62187494 1.04874998 3.79371361 1.64931313 5.25 4.125 C5.4975 4.74375 5.745 5.3625 6 6 C5.01 6 4.02 6 3 6 C0 2.66666667 0 2.66666667 0 0 Z " fill="#2986F2" transform="translate(23,130)"/>
<path d="M0 0 C2.35448165 2.55068845 2.98327924 3.71017358 3.1875 7.25 C3.125625 8.1575 3.06375 9.065 3 10 C2.34 10 1.68 10 1 10 C-0.1577506 6.52674819 -0.06866652 3.63932552 0 0 Z " fill="#4C4BE7" transform="translate(29,120)"/>
<path d="M0 0 C2.66735273 2.48952921 4.55746343 4.63408134 6 8 C5.34 8.66 4.68 9.32 4 10 C3.32845067 8.71086513 2.66291141 7.41859796 2 6.125 C1.62875 5.40570313 1.2575 4.68640625 0.875 3.9453125 C0 2 0 2 0 0 Z " fill="#4D4CF2" transform="translate(32,131)"/>
<path d="M0 0 C1.99097846 2.98646769 2.94124926 5.59687262 4 9 C2.68 8.67 1.36 8.34 0 8 C0 5.36 0 2.72 0 0 Z " fill="#6862E8" transform="translate(152,104)"/>
<path d="M0 0 C0.33 0 0.66 0 1 0 C1 2.64 1 5.28 1 8 C0.01 8 -0.98 8 -2 8 C-1.125 2.25 -1.125 2.25 0 0 Z " fill="#209AF5" transform="translate(13,63)"/>
<path d="M0 0 C1.98 0 3.96 0 6 0 C5.01 2.31 4.02 4.62 3 7 C2.67 7 2.34 7 2 7 C2 5.35 2 3.7 2 2 C1.34 2 0.68 2 0 2 C0 1.34 0 0.68 0 0 Z " fill="#4A72BF" transform="translate(95,57)"/>
<path d="M0 0 C1.98 0.66 3.96 1.32 6 2 C6 2.33 6 2.66 6 3 C3.36 3.33 0.72 3.66 -2 4 C-1.34 2.68 -0.68 1.36 0 0 Z " fill="#4E2B76" transform="translate(74,51)"/>
<path d="" fill="#00FFFF" transform="translate(0,0)"/>
<path d="" fill="#00FFFF" transform="translate(0,0)"/>
</svg>
